<svg width="24" height="25" viewBox="0 0 24 25" fill="none" xmlns="http://www.w3.org/2000/svg">
<path d="M14.81 12.78C15.443 12.1002 15.7996 11.2088 15.81 10.28C15.81 9.27748 15.4118 8.31602 14.7029 7.60714C13.994 6.89825 13.0325 6.5 12.03 6.5C11.0275 6.5 10.066 6.89825 9.35714 7.60714C8.64825 8.31602 8.25 9.27748 8.25 10.28C8.26044 11.2088 8.61702 12.1002 9.25 12.78C8.36865 13.2189 7.61022 13.8699 7.04292 14.6746C6.47561 15.4793 6.11723 16.4124 6 17.39C5.97083 17.6552 6.0482 17.9212 6.21511 18.1293C6.38202 18.3375 6.62478 18.4708 6.89 18.5C7.15522 18.5292 7.42116 18.4518 7.62932 18.2849C7.83749 18.118 7.97083 17.8752 8 17.61C8.11933 16.6411 8.58885 15.7494 9.32009 15.1027C10.0513 14.456 10.9938 14.099 11.97 14.099C12.9462 14.099 13.8887 14.456 14.6199 15.1027C15.3512 15.7494 15.8207 16.6411 15.94 17.61C15.9678 17.8664 16.0936 18.1022 16.2911 18.268C16.4887 18.4339 16.7426 18.517 17 18.5H17.11C17.3721 18.4698 17.6117 18.3373 17.7766 18.1313C17.9414 17.9252 18.0181 17.6624 17.99 17.4C17.8815 16.4276 17.5344 15.497 16.9796 14.691C16.4248 13.8851 15.6796 13.2286 14.81 12.78ZM12 12.06C11.6479 12.06 11.3038 11.9556 11.0111 11.76C10.7184 11.5644 10.4902 11.2864 10.3555 10.9612C10.2208 10.6359 10.1855 10.278 10.2542 9.93274C10.3229 9.58745 10.4924 9.27029 10.7414 9.02135C10.9903 8.77241 11.3075 8.60288 11.6527 8.5342C11.998 8.46552 12.3559 8.50077 12.6812 8.63549C13.0064 8.77022 13.2844 8.99837 13.48 9.29109C13.6756 9.5838 13.78 9.92795 13.78 10.28C13.78 10.7521 13.5925 11.2048 13.2586 11.5387C12.9248 11.8725 12.4721 12.06 12 12.06ZM19 2.5H5C4.20435 2.5 3.44129 2.81607 2.87868 3.37868C2.31607 3.94129 2 4.70435 2 5.5V19.5C2 20.2956 2.31607 21.0587 2.87868 21.6213C3.44129 22.1839 4.20435 22.5 5 22.5H19C19.7956 22.5 20.5587 22.1839 21.1213 21.6213C21.6839 21.0587 22 20.2956 22 19.5V5.5C22 4.70435 21.6839 3.94129 21.1213 3.37868C20.5587 2.81607 19.7956 2.5 19 2.5ZM20 19.5C20 19.7652 19.8946 20.0196 19.7071 20.2071C19.5196 20.3946 19.2652 20.5 19 20.5H5C4.73478 20.5 4.48043 20.3946 4.29289 20.2071C4.10536 20.0196 4 19.7652 4 19.5V5.5C4 5.23478 4.10536 4.98043 4.29289 4.79289C4.48043 4.60536 4.73478 4.5 5 4.5H19C19.2652 4.5 19.5196 4.60536 19.7071 4.79289C19.8946 4.98043 20 5.23478 20 5.5V19.5Z" fill="white"/>
</svg>
