<svg width="25" height="24" viewBox="0 0 25 24" fill="none" xmlns="http://www.w3.org/2000/svg">
<path d="M2 11.9701C2 17.4627 6.53731 22 12.0299 22C17.5224 22 22.0597 17.4627 22.0597 11.9701C22.0597 6.47761 17.5224 2 12.0299 2C6.53731 2 2 6.47761 2 11.9701ZM15.7313 16.6269C13.403 15.194 10.4179 14.8358 6.95522 15.6119C6.1194 15.7313 6 14.5373 6.71642 14.4179C10.5373 13.5224 13.7612 13.9403 16.3881 15.5522C17.0448 15.9701 16.3881 16.9851 15.7313 16.6269ZM16.7463 13.9403C14.0597 12.2687 9.9403 11.791 6.77612 12.7463C5.76119 13.0448 5.40298 11.4925 6.35821 11.2537C10 10.1791 14.4776 10.7164 17.5821 12.6269C18.4179 13.1642 17.5821 14.4776 16.7463 13.9403ZM6.29851 9.70149C5.28358 10.0597 4.62687 8.32836 5.76119 7.91045C9.28358 6.83582 15.2537 7.01493 18.9552 9.22388C19.9701 9.76119 19.0149 11.4328 17.9403 10.8358C14.7164 8.92537 9.34328 8.74627 6.29851 9.70149Z" fill="#0f1419"/>
</svg>
